<mxfile host="65bd71144e">
    <diagram id="dNEiNsNa6CKrIPc_Uie3" name="PÃ¡gina-1">
        <mxGraphModel dx="832" dy="480" grid="1" gridSize="10" guides="1" tooltips="1" connect="1" arrows="1" fold="1" page="1" pageScale="1" pageWidth="827" pageHeight="1169" math="0" shadow="0">
            <root>
                <mxCell id="0"/>
                <mxCell id="1" parent="0"/>
                <mxCell id="4" style="edgeStyle=none;html=1;" edge="1" parent="1" source="2" target="3">
                    <mxGeometry relative="1" as="geometry"/>
                </mxCell>
                <mxCell id="11" style="edgeStyle=none;html=1;exitX=0.5;exitY=0.5;exitDx=0;exitDy=0;exitPerimeter=0;entryX=0;entryY=0.5;entryDx=0;entryDy=0;" edge="1" parent="1" source="2" target="8">
                    <mxGeometry relative="1" as="geometry">
                        <mxPoint x="80" y="260" as="targetPoint"/>
                    </mxGeometry>
                </mxCell>
                <mxCell id="14" style="edgeStyle=none;html=1;exitX=0.5;exitY=0.5;exitDx=0;exitDy=0;exitPerimeter=0;entryX=0;entryY=0.5;entryDx=0;entryDy=0;" edge="1" parent="1" source="2" target="12">
                    <mxGeometry relative="1" as="geometry"/>
                </mxCell>
                <mxCell id="15" style="edgeStyle=none;html=1;exitX=0.5;exitY=0.5;exitDx=0;exitDy=0;exitPerimeter=0;entryX=0;entryY=0.5;entryDx=0;entryDy=0;" edge="1" parent="1" source="2" target="13">
                    <mxGeometry relative="1" as="geometry"/>
                </mxCell>
                <mxCell id="2" value="Usuario" style="shape=umlActor;verticalLabelPosition=bottom;verticalAlign=top;html=1;outlineConnect=0;" vertex="1" parent="1">
                    <mxGeometry x="60" y="190" width="30" height="60" as="geometry"/>
                </mxCell>
                <mxCell id="10" value="Sistema de ataque" style="swimlane;whiteSpace=wrap;html=1;" vertex="1" parent="1">
                    <mxGeometry x="120" y="30" width="350" height="355" as="geometry"/>
                </mxCell>
                <mxCell id="8" value="Obtiene y regresa&lt;br&gt;CoordenadasUcranianas" style="ellipse;whiteSpace=wrap;html=1;" vertex="1" parent="10">
                    <mxGeometry x="105" y="100" width="140" height="70" as="geometry"/>
                </mxCell>
                <mxCell id="3" value="iniciarSesion" style="ellipse;whiteSpace=wrap;html=1;" vertex="1" parent="10">
                    <mxGeometry x="125" y="35" width="100" height="50" as="geometry"/>
                </mxCell>
                <mxCell id="12" value="Informacion de usuario a ataque" style="ellipse;whiteSpace=wrap;html=1;" vertex="1" parent="10">
                    <mxGeometry x="105" y="190" width="140" height="70" as="geometry"/>
                </mxCell>
                <mxCell id="13" value="Presentacion de Ataque&lt;br&gt;(Arbol binario)" style="ellipse;whiteSpace=wrap;html=1;" vertex="1" parent="10">
                    <mxGeometry x="105" y="270" width="140" height="70" as="geometry"/>
                </mxCell>
            </root>
        </mxGraphModel>
    </diagram>
</mxfile>